<?xml version="1.0" encoding="UTF-8" standalone="no"?>
<svg width="281px" height="281px" viewBox="0 0 281 281" version="1.1" xmlns="http://www.w3.org/2000/svg" xmlns:xlink="http://www.w3.org/1999/xlink" xmlns:sketch="http://www.bohemiancoding.com/sketch/ns">
    <!-- Generator: Sketch 3.3.2 (12043) - http://www.bohemiancoding.com/sketch -->
    <title>Slice 1</title>
    <desc>Created with Sketch.</desc>
    <defs>
        <linearGradient x1="-1693.92782%" y1="50.0039857%" x2="16265.7531%" y2="50.0039857%" id="linearGradient-1">
            <stop stop-color="#1D71B8" offset="0%"></stop>
            <stop stop-color="#18537E" offset="38.46%"></stop>
            <stop stop-color="#0E3950" offset="79.99%"></stop>
            <stop stop-color="#093040" offset="100%"></stop>
        </linearGradient>
        <linearGradient x1="-88.8068992%" y1="50.0003252%" x2="127.95081%" y2="50.0003252%" id="linearGradient-2">
            <stop stop-color="#1D71B8" offset="0%"></stop>
            <stop stop-color="#18537E" offset="38.46%"></stop>
            <stop stop-color="#0E3950" offset="79.99%"></stop>
            <stop stop-color="#093040" offset="100%"></stop>
        </linearGradient>
        <linearGradient x1="-100.429178%" y1="50.0018723%" x2="134.76283%" y2="50.0018723%" id="linearGradient-3">
            <stop stop-color="#1D71B8" offset="0%"></stop>
            <stop stop-color="#18537E" offset="38.46%"></stop>
            <stop stop-color="#0E3950" offset="79.99%"></stop>
            <stop stop-color="#093040" offset="100%"></stop>
        </linearGradient>
        <linearGradient x1="-39.5119819%" y1="50.0004533%" x2="270.24856%" y2="50.0004533%" id="linearGradient-4">
            <stop stop-color="#1D71B8" offset="0%"></stop>
            <stop stop-color="#18537E" offset="38.46%"></stop>
            <stop stop-color="#0E3950" offset="79.99%"></stop>
            <stop stop-color="#093040" offset="100%"></stop>
        </linearGradient>
        <linearGradient x1="-26.1532203%" y1="50.0000934%" x2="280.616229%" y2="50.0000934%" id="linearGradient-5">
            <stop stop-color="#1D71B8" offset="0%"></stop>
            <stop stop-color="#18537E" offset="38.46%"></stop>
            <stop stop-color="#0E3950" offset="79.99%"></stop>
            <stop stop-color="#093040" offset="100%"></stop>
        </linearGradient>
        <linearGradient x1="-28.0014369%" y1="49.9988621%" x2="273.151088%" y2="49.9988621%" id="linearGradient-6">
            <stop stop-color="#1D71B8" offset="0%"></stop>
            <stop stop-color="#18537E" offset="38.46%"></stop>
            <stop stop-color="#0E3950" offset="79.99%"></stop>
            <stop stop-color="#093040" offset="100%"></stop>
        </linearGradient>
        <linearGradient x1="-60.0310809%" y1="49.9971032%" x2="278.043081%" y2="49.9971032%" id="linearGradient-7">
            <stop stop-color="#1D71B8" offset="0%"></stop>
            <stop stop-color="#18537E" offset="38.46%"></stop>
            <stop stop-color="#0E3950" offset="79.99%"></stop>
            <stop stop-color="#093040" offset="100%"></stop>
        </linearGradient>
        <linearGradient x1="-140.972052%" y1="35.7982172%" x2="153.569923%" y2="62.4528623%" id="linearGradient-8">
            <stop stop-color="#1D71B8" offset="0%"></stop>
            <stop stop-color="#18537E" offset="38.46%"></stop>
            <stop stop-color="#0E3950" offset="79.99%"></stop>
            <stop stop-color="#093040" offset="100%"></stop>
        </linearGradient>
        <linearGradient x1="-102.537054%" y1="50.0025773%" x2="272.368022%" y2="50.0025773%" id="linearGradient-9">
            <stop stop-color="#1D71B8" offset="0%"></stop>
            <stop stop-color="#18537E" offset="38.46%"></stop>
            <stop stop-color="#0E3950" offset="79.99%"></stop>
            <stop stop-color="#093040" offset="100%"></stop>
        </linearGradient>
    </defs>
    <g id="Page-1" stroke="none" stroke-width="1" fill="none" fill-rule="evenodd" sketch:type="MSPage">
        <g id="hermes-logo" sketch:type="MSLayerGroup" transform="translate(1.000000, 0.000000)">
            <g id="Group" sketch:type="MSShapeGroup">
                <path d="M5.752,3.398 C5.115,2.564 4.477,1.73 3.84,0.889 C4.311,1.567 4.96,2.417 5.752,3.398 L5.752,3.398 Z" id="Shape" fill="url(#linearGradient-1)"></path>
                <path d="M275.054,139.05 C262.041,121.301 239.835,101.379 203.89,92.795 C203.643,92.734 188.582,89.124 161.449,89.124 C157.952,89.124 154.251,89.186 150.358,89.322 L150.238,89.327 L150.119,89.338 C150.119,89.338 150.036,89.344 149.801,89.364 C149.565,89.385 149.202,89.408 148.719,89.436 C147.752,89.488 146.306,89.537 144.447,89.537 C129.589,89.547 88.62,86.125 52.89,52.251 C52.691,52.055 51.28,50.68 49.033,48.47 C46.611,46.087 43.218,42.735 39.358,38.88 C31.643,31.169 22.04,21.435 14.579,13.389 C10.978,9.516 7.859,5.991 5.755,3.398 C27.77,32.088 51.439,55.976 51.45,55.985 L51.46,55.992 L51.491,56.021 C89.337,91.842 128.564,97.733 144.448,97.738 C147.963,97.738 150.167,97.562 150.722,97.513 C154.488,97.381 158.068,97.326 161.451,97.326 C186.277,97.326 200.557,100.423 202.042,100.756 C202.142,100.779 202.168,100.785 202.173,100.789 C235.182,108.706 255.444,126.382 267.758,142.518 C269.964,145.414 271.904,148.259 273.616,150.991 L279.201,145.088 C277.918,143.105 276.541,141.077 275.054,139.05 L275.054,139.05 Z" id="Shape" fill="#0A3040"></path>
                <path d="M201.308,104.72 L201.301,104.72 C201.291,104.72 201.246,104.738 201.19,104.725 C199.969,104.448 185.966,101.408 161.447,101.408 C158.129,101.408 154.631,101.472 150.939,101.599 C150.168,101.664 147.905,101.834 144.439,101.834 C137.329,101.831 125.952,100.714 112.244,96.597 C112.303,96.823 112.376,97.079 112.46,97.372 C112.534,97.647 112.623,97.957 112.718,98.293 C117.878,112.565 127.494,120.563 137.827,125.145 C148.16,129.706 159.18,130.701 166.607,130.694 C169.322,130.694 171.553,130.564 173.101,130.436 C173.874,130.375 174.477,130.308 174.88,130.263 C175.287,130.214 175.478,130.183 175.478,130.183 C183.089,129.208 190.39,128.885 196.76,128.885 C209.505,128.887 218.531,130.178 218.59,130.183 L218.625,130.188 L218.65,130.193 C241.322,134.291 259.117,150.103 266.89,158.092 L270.814,153.947 C269.059,151.095 267.047,148.104 264.73,145.058 C252.83,129.496 233.415,111.934 201.308,104.72 L201.308,104.72 Z" id="Shape" fill="url(#linearGradient-2)"></path>
                <path d="M216.552,133.676 C213.489,133.316 206.142,132.606 196.76,132.606 C190.503,132.606 183.343,132.923 175.948,133.87 C175.916,133.877 172.249,134.412 166.606,134.415 C158.878,134.412 147.436,133.417 136.43,128.565 C129.876,125.686 123.469,121.389 118.191,115.127 C118.191,115.127 118.352,115.656 118.664,116.606 C119.383,118.623 120.162,120.762 121,122.999 C125.604,134.662 135.703,155.511 150.069,158.855 C153.417,159.418 156.899,159.642 160.299,159.642 C170.277,159.641 179.387,157.786 182.64,157.351 C188.023,156.651 194.212,154.413 210.333,154.428 C213.355,154.428 216.73,154.501 220.521,154.678 C238.586,155.531 251.115,164.278 256.925,168.537 L264.331,160.685 C256.81,152.986 239.489,137.664 218.086,133.866 C217.998,133.857 217.476,133.781 216.552,133.676 L216.552,133.676 Z" id="Shape" fill="url(#linearGradient-3)"></path>
                <path d="M55.591,149.025 C60.428,149.667 64.977,149.76 68.846,149.76 C70.273,149.76 71.614,149.747 72.846,149.747 C79.157,149.75 93.677,148.592 106.52,147.433 C112.946,146.85 118.976,146.272 123.395,145.837 C124.435,145.733 125.382,145.641 126.224,145.556 C123.366,142.535 118.466,131.655 118.466,131.655 C109.01,131.462 88.341,130.559 67.019,126.496 C53.977,124.005 40.689,120.339 29.54,114.86 C24.213,112.235 19.357,109.193 15.265,105.639 C15.337,105.851 15.415,106.07 15.49,106.283 C17.329,111.372 30.413,145.043 55.591,149.025 L55.591,149.025 Z" id="Shape" fill="url(#linearGradient-4)"></path>
                <path d="M28.156,76.21 C45.817,88.519 68.194,97.454 86.123,103.268 C95.086,106.175 102.944,108.311 108.548,109.714 C110.15,110.119 111.557,110.457 112.766,110.741 C112.766,110.741 107.396,104.12 104.84,94.152 C87.901,88.038 68.227,77.355 48.897,59.072 L48.884,59.069 L48.786,58.973 L48.739,58.922 C48.084,58.256 24.662,34.552 2.764,6.018 C2.078,5.169 1.493,4.408 0.991,3.708 C0.991,3.708 -1.328,43.332 7.733,57.219 C12.978,64.229 20.054,70.576 28.156,76.21 L28.156,76.21 Z" id="Shape" fill="url(#linearGradient-5)"></path>
                <path d="M27.909,109.75 C28.933,110.313 29.983,110.859 31.063,111.39 C47.14,119.299 68.416,123.471 86.505,125.605 C99.498,127.145 110.845,127.647 117.512,127.81 C112.819,122.824 110.597,114.149 110.597,114.149 C101.715,112.018 84.391,107.407 65.772,99.986 C52.354,94.639 38.269,87.839 26.164,79.407 C17.079,73.072 9.084,65.821 3.38,57.505 C3.93,61.041 4.573,64.705 5.309,68.47 C8.163,81.541 14.671,102.517 27.909,109.75 L27.909,109.75 Z" id="Shape" fill="url(#linearGradient-6)"></path>
                <path d="M73.939,173.31 C88.252,173.311 103.852,170.38 115.838,167.431 C121.83,165.959 126.924,164.488 130.516,163.386 C131.984,162.934 133.199,162.545 134.123,162.243 C125.963,155.791 124.446,149.575 124.446,149.575 C111.499,150.857 82.907,153.571 72.844,153.576 C71.632,153.576 70.293,153.589 68.844,153.589 C61.882,153.586 52.471,153.315 42.897,149.961 C39.399,148.738 35.876,147.085 32.453,144.885 C33.446,146.724 34.474,148.563 35.53,150.398 C40.377,158.048 51.006,171.158 67.791,173.118 C69.804,173.25 71.855,173.312 73.939,173.31 L73.939,173.31 Z" id="Shape" fill="url(#linearGradient-7)"></path>
                <path d="M214.471,157.729 C198.6,157.314 188.785,160.174 182.827,160.912 C179.822,161.268 170.32,163.183 159.979,162.905 C154.018,162.741 147.732,161.865 142.096,159.485 C139.928,158.568 137.851,157.411 135.933,155.984 C136.23,156.713 136.54,157.447 136.845,158.179 C139.859,165.125 150.071,186.295 163.604,189.101 C164.761,188.696 165.78,188.311 166.649,187.966 C167.808,187.507 168.697,187.123 169.288,186.857 C169.584,186.724 169.804,186.619 169.951,186.55 C170.092,186.48 170.142,186.457 170.142,186.457 L170.215,186.42 L170.288,186.389 C172.687,185.352 174.977,184.406 177.155,183.545 C194.051,176.853 204.143,175.136 204.308,175.115 C225.565,172.242 236.872,173.241 246.998,177.8 L253.887,170.546 C247.684,165.707 241.405,161.337 227.367,158.933 C223.665,158.295 217.434,157.809 214.471,157.729 L214.471,157.729 Z" id="Shape" fill="url(#linearGradient-8)"></path>
                <path d="M203.771,179.088 C206.75,178.619 193.783,181.005 176.831,188.243 C174.672,189.163 172.405,190.171 170.032,191.271 L169.961,191.304 L169.888,191.343 C169.888,191.343 169.839,191.366 169.698,191.441 C169.554,191.515 169.336,191.624 169.045,191.765 C168.461,192.049 167.58,192.457 166.434,192.945 C157.274,196.863 131.29,205.767 102.136,196.546 C101.973,196.49 100.813,196.106 98.964,195.486 C96.969,194.811 94.171,193.863 90.982,192.758 C84.603,190.551 76.633,187.725 70.339,185.267 C67.307,184.084 64.641,182.968 62.797,182.096 C82.408,192.073 102.025,198.977 102.035,198.979 L102.043,198.979 L102.068,198.989 C132.937,208.721 158.366,201.635 168.161,197.454 C170.325,196.531 171.648,195.852 171.98,195.679 C174.275,194.616 176.468,193.646 178.556,192.752 C193.865,186.217 203.323,184.157 204.305,183.952 C204.373,183.939 204.39,183.936 204.393,183.936 C221.989,181.199 232.116,181.096 241.088,184.043 L244.924,179.99 C235.087,176.276 223.863,175.822 203.771,179.088 L203.771,179.088 Z" id="Shape" fill="#0A3040"></path>
                <path d="M116.708,171.546 C98.036,175.475 81.001,179.898 61.528,174.65 C63.51,178.68 68.204,180.335 70.979,181.573 C71.435,181.765 74.815,183.255 75.158,183.388 C79.542,185.103 87.437,187.876 92.86,189.751 C96.049,190.855 98.845,191.806 100.841,192.479 C102.69,193.099 103.85,193.485 104.014,193.54 C125.834,200.44 144.588,196.2 157.131,192.485 C152.673,189.545 147.195,186.167 142.425,178.915 C138.478,172.922 136.856,169.906 136.856,169.906 L135.434,166.173 C129.485,168.107 125.13,169.772 116.708,171.546 L116.708,171.546 Z" id="Shape" fill="url(#linearGradient-9)"></path>
            </g>
            <g id="Group" transform="translate(3.000000, 216.000000)" sketch:type="MSShapeGroup">
                <path d="M63.799,21.609 C59.18,21.609 55.375,23.083 52.388,26.029 C49.4,28.975 47.687,32.826 47.242,37.582 L80.273,37.582 C79.831,32.826 78.127,28.976 75.168,26.029 C72.21,23.083 68.421,21.609 63.799,21.609 L63.799,21.609 Z" id="Shape"></path>
                <path d="M212.97,21.609 C208.348,21.609 204.546,23.083 201.558,26.029 C198.57,28.975 196.855,32.826 196.412,37.582 L229.446,37.582 C229,32.826 227.3,28.976 224.339,26.029 C221.381,23.083 217.588,21.609 212.97,21.609 L212.97,21.609 Z" id="Shape"></path>
                <path d="M63.842,18.365 C57.839,18.365 52.955,20.385 49.193,24.427 C45.432,28.469 43.55,33.594 43.55,39.8 C43.55,46.118 45.464,51.265 49.297,55.235 C53.129,59.209 58.116,61.195 64.256,61.195 C71.863,61.195 77.606,59.143 81.478,55.044 L78.904,52.526 C77.354,54.205 75.086,55.531 72.098,56.498 C69.443,57.38 66.829,57.82 64.256,57.82 C59.331,57.82 55.335,56.278 52.264,53.199 C49.192,50.116 47.518,46.032 47.243,40.956 L83.761,40.956 C83.9,40.444 83.967,39.819 83.967,39.079 C83.967,33.082 82.073,28.134 78.282,24.224 C74.493,20.318 69.679,18.365 63.842,18.365 L63.842,18.365 Z M47.243,37.582 C47.687,32.826 49.4,28.976 52.389,26.029 C55.376,23.083 59.181,21.609 63.8,21.609 C68.422,21.609 72.211,23.083 75.17,26.029 C78.129,28.975 79.833,32.826 80.275,37.582 L47.243,37.582 L47.243,37.582 Z" id="Shape" stroke="#0A3040" stroke-width="7" fill="#0B303F"></path>
                <path d="M167.284,18.365 C161.888,18.365 157.63,21.04 154.504,26.391 C151.515,21.039 147.269,18.365 141.766,18.365 C136.951,18.365 133.218,20.015 130.561,23.318 L130.561,19.134 L126.991,19.134 L126.991,32.97 L126.991,34.057 L126.991,35.146 L126.991,60.424 L130.561,60.424 L130.561,31.601 C130.919,29.01 131.916,26.819 133.547,25.025 C135.621,22.748 138.307,21.609 141.599,21.609 C145.055,21.609 147.81,22.804 149.856,25.196 C151.821,27.474 152.804,30.419 152.804,34.036 L152.804,60.425 L156.207,60.425 L156.207,34.036 C156.207,30.419 157.186,27.474 159.151,25.196 C161.198,22.804 163.965,21.609 167.451,21.609 C170.907,21.609 173.66,22.804 175.708,25.196 C177.673,27.474 178.654,30.419 178.654,34.036 L178.654,60.425 L182.139,60.425 L182.139,35.147 C182.139,30.135 180.894,26.137 178.406,23.147 C175.776,19.959 172.073,18.365 167.284,18.365 L167.284,18.365 Z" id="Shape" stroke="#0A3040" stroke-width="7" fill="#0B303F"></path>
                <path d="M213.013,18.365 C207.01,18.365 202.126,20.385 198.364,24.427 C194.599,28.469 192.72,33.594 192.72,39.8 C192.72,46.118 194.635,51.265 198.468,55.235 C202.298,59.209 207.283,61.195 213.424,61.195 C221.033,61.195 226.774,59.143 230.648,55.044 L228.074,52.526 C226.526,54.205 224.259,55.531 221.27,56.498 C218.613,57.38 215.999,57.82 213.424,57.82 C208.5,57.82 204.504,56.278 201.434,53.199 C198.364,50.116 196.688,46.032 196.412,40.956 L232.932,40.956 C233.071,40.444 233.137,39.819 233.137,39.079 C233.137,33.082 231.242,28.134 227.453,24.224 C223.662,20.318 218.846,18.365 213.013,18.365 L213.013,18.365 Z M196.411,37.582 C196.854,32.826 198.569,28.976 201.557,26.029 C204.545,23.082 208.347,21.609 212.969,21.609 C217.587,21.609 221.38,23.083 224.337,26.029 C227.298,28.975 228.998,32.826 229.444,37.582 L196.411,37.582 L196.411,37.582 Z" id="Shape" stroke="#0A3040" stroke-width="7" fill="#0B303F"></path>
                <path d="M262.092,38.562 L253.997,36.22 C248.576,34.659 245.864,32.244 245.864,28.979 C245.864,24.664 248.494,22.507 253.749,22.507 L260.845,22.507 C264.361,22.507 267.021,23.4 268.845,25.167 L271.374,22.563 C269.104,20.281 265.724,19.134 261.219,19.134 L258.938,19.134 L255.037,19.134 C246.6,19.134 242.381,22.35 242.381,28.784 C242.381,33.91 245.715,37.429 252.38,39.335 L260.143,41.545 C266.257,43.287 269.313,46.144 269.313,50.11 C269.313,54.737 266.104,57.051 259.686,57.051 L253.087,57.051 C249.952,57.051 247.458,56.139 245.585,54.343 L243.034,56.965 C245.362,59.268 248.71,60.423 253.087,60.423 L257.154,60.423 C267.584,60.423 272.798,56.894 272.798,49.832 C272.797,44.398 269.229,40.64 262.092,38.562 L262.092,38.562 Z" id="Shape" stroke="#0A3040" stroke-width="7" fill="#0B303F"></path>
                <path d="M29.196,23.657 C26.457,20.073 22.527,18.278 17.409,18.278 C11.518,18.278 6.952,21.012 3.717,26.476 L3.717,0.227 L0.314,3.728 L0.314,60.424 L3.717,60.424 L3.717,37.937 C3.717,33.351 4.865,29.561 7.159,26.568 C9.65,23.292 13.066,21.652 17.409,21.652 C21.2,21.652 24.215,23.09 26.457,25.969 C28.533,28.62 29.568,31.941 29.568,35.928 L29.568,60.424 L32.971,60.424 L32.971,36.637 C32.972,31.259 31.711,26.934 29.196,23.657 L29.196,23.657 Z" id="Shape" stroke="#0B303F" stroke-width="7" fill="#0A3040"></path>
                <path d="M111.974,18.961 C105.859,18.961 101.185,21.709 97.949,27.203 L97.949,19.135 L94.545,19.135 L94.545,60.425 L97.949,60.425 L97.949,41.958 C97.949,35.75 99.208,30.975 101.726,27.643 C104.383,24.138 107.636,22.401 111.482,22.427 C111.784,22.46 112.052,22.491 112.323,22.525 L115.322,19.442 C113.492,19.17 112.372,19.01 111.974,18.961 L111.974,18.961 Z" id="Shape" stroke="#0A3040" stroke-width="7" fill="#0B303F"></path>
            </g>
        </g>
    </g>
</svg>